<svg t="1640200765446" class="icon" viewBox="0 0 1024 1024" version="1.1" xmlns="http://www.w3.org/2000/svg" p-id="1787" xmlns:xlink="http://www.w3.org/1999/xlink" width="200" height="200">
  <defs>
    <style type="text/css"></style>
  </defs>
  <path d="M654.222222 398.222222h-28.444444v-56.888889h28.444444V219.022222c-8.533333-2.844444-19.911111-5.688889-31.288889-8.533333-36.977778-5.688889-76.8-11.377778-110.933333-11.377778s-73.955556 5.688889-110.933333 14.222222c-11.377778 2.844444-22.755556 5.688889-31.288889 5.688889V341.333333h28.444444v56.888889h-28.444444v56.888889c0 79.644444 62.577778 142.222222 142.222222 142.222222s142.222222-62.577778 142.222222-142.222222v-56.888889z m11.377778 182.044445c96.711111 56.888889 159.288889 159.288889 159.288889 273.066666v28.444445H199.111111v-28.444445c0-113.777778 62.577778-216.177778 159.288889-273.066666-28.444444-34.133333-45.511111-76.8-45.511111-125.155556V179.2l19.911111-5.688889c2.844444-2.844444 8.533333-2.844444 14.222222-5.688889 11.377778-2.844444 25.6-5.688889 39.822222-11.377778 42.666667-8.533333 85.333333-14.222222 125.155556-14.222222s82.488889 5.688889 122.311111 14.222222c14.222222 2.844444 28.444444 5.688889 39.822222 11.377778 8.533333 2.844444 14.222222 2.844444 17.066667 5.688889l19.911111 5.688889V455.111111c0 48.355556-17.066667 91.022222-45.511111 125.155556z m-261.688889 42.666666c-79.644444 36.977778-136.533333 113.777778-145.066667 201.955556H768c-8.533333-88.177778-65.422222-164.977778-145.066667-201.955556-34.133333 19.911111-71.111111 31.288889-110.933333 31.288889s-76.8-11.377778-108.088889-31.288889z" fill="#3C3D44" p-id="1788"></path>
  <path d="M483.555556 284.444444V227.555556h56.888888v56.888888h56.888889v56.888889h-56.888889v56.888889h-56.888888v-56.888889h-56.888889v-56.888889z" fill="#FF4A60" p-id="1789"></path>
</svg>
